<svg width="42" height="33" viewBox="0 0 42 33" fill="none" xmlns="http://www.w3.org/2000/svg">
<path d="M3.70333 32.0833C2.64764 32.0833 1.76688 31.7304 1.06104 31.0246C0.355208 30.3188 0.00152778 29.4372 0 28.38V3.70333C0 2.64764 0.353681 1.76687 1.06104 1.06104C1.7684 0.355208 2.6484 0.00152778 3.70104 0H37.549C38.6031 0 39.4831 0.35368 40.189 1.06104C40.8948 1.7684 41.2485 2.64917 41.25 3.70333V28.3823C41.25 29.4365 40.8963 30.3172 40.189 31.0246C39.4816 31.7319 38.6016 32.0849 37.549 32.0833H3.70333ZM20.625 16.3075L2.29167 4.31979V28.3823C2.29167 28.7933 2.42382 29.1309 2.68812 29.3952C2.95243 29.6595 3.29083 29.7917 3.70333 29.7917H37.549C37.9599 29.7917 38.2976 29.6595 38.5619 29.3952C38.8262 29.1309 38.9583 28.7925 38.9583 28.38V4.3175L20.625 16.3075ZM20.625 13.75L38.2525 2.29167H2.9975L20.625 13.75ZM2.29167 4.31979V2.29167V28.3823C2.29167 28.7933 2.42382 29.1309 2.68812 29.3952C2.95243 29.6595 3.29083 29.7917 3.70333 29.7917H2.29167V4.31979Z" fill="#3B8DF2"/>
</svg>
