<svg width="43" height="43" viewBox="0 0 43 43" fill="none" xmlns="http://www.w3.org/2000/svg">
<path d="M21.2803 0.859375C32.5581 0.859632 41.6999 10.0015 41.7002 21.2793C41.7002 32.5573 32.5582 41.6999 21.2803 41.7002H21.2783C17.6703 41.7064 14.1255 40.7513 11.0088 38.9336L10.6973 38.752L10.3496 38.8467L1.23242 41.334L3.71484 32.2139L3.80957 31.8662L3.62793 31.5547C1.80877 28.437 0.853052 24.8908 0.859375 21.2812V21.2793C0.859628 10.0013 10.0022 0.859375 21.2803 0.859375ZM14.5049 10.4268C14.1807 10.4082 13.855 10.4115 13.5312 10.4365V10.4385C13.1491 10.4663 12.7757 10.5674 12.4316 10.7363L12.4082 10.748L12.3867 10.7607C12.1599 10.8894 11.9476 11.042 11.7539 11.2158L11.5957 11.3672C11.2779 11.6665 11.0835 11.944 10.9482 12.1201C10.0451 13.2944 9.55841 14.7364 9.56543 16.2178V16.2188C9.5703 17.4088 9.88084 18.543 10.3428 19.5732L10.3447 19.5771C11.207 21.4788 12.5772 23.4569 14.3525 25.2988L14.7129 25.666C15.1576 26.1086 15.6288 26.5887 16.1348 27.0342C18.5832 29.1896 21.5006 30.7443 24.6553 31.5742L24.6992 31.5859L24.7441 31.5928L25.9521 31.7773L25.9941 31.7842L26.0361 31.7861C26.4868 31.8105 26.9447 31.7763 27.3076 31.7588H27.3115C28.056 31.7195 28.783 31.5177 29.4414 31.168L29.4404 31.167C29.7385 31.0126 30.03 30.8459 30.3135 30.666L30.3252 30.6592L30.3359 30.6514H30.3369L30.3379 30.6504C30.3392 30.6495 30.3417 30.6479 30.3438 30.6465C30.3477 30.6438 30.3529 30.6402 30.3594 30.6357C30.3731 30.6262 30.3932 30.6123 30.418 30.5947C30.4675 30.5596 30.5382 30.5072 30.6309 30.4385C30.9504 30.2018 31.1654 30.0199 31.4424 29.7305L31.4414 29.7295C31.685 29.4774 31.8852 29.1901 32.041 28.8711L32.0439 28.8643C32.2656 28.4008 32.4476 27.6374 32.5215 27.0391V27.0371C32.5802 26.5527 32.5639 26.2689 32.5566 26.1084H32.5576C32.5452 25.7754 32.4072 25.4952 32.2607 25.2979C32.1121 25.0976 31.9084 24.9188 31.6689 24.8027L31.6572 24.7969L31.6455 24.792L30.4072 24.2363L30.3984 24.2324H30.3975C30.3966 24.232 30.3953 24.2312 30.3936 24.2305C30.3901 24.2289 30.3848 24.2266 30.3779 24.2236C30.3642 24.2176 30.3436 24.2087 30.3174 24.1973C30.2647 24.1743 30.188 24.1413 30.0928 24.0996C29.902 24.0162 29.6362 23.8992 29.335 23.7666L27.4277 22.917L27.415 22.9111C27.2156 22.8243 27.0029 22.7735 26.7861 22.7578L26.7871 22.7568C26.7751 22.7556 26.763 22.7559 26.751 22.7549C26.7467 22.7547 26.7425 22.7541 26.7383 22.7539H26.7373C26.4855 22.7343 26.232 22.7642 25.9922 22.8447C25.7594 22.9229 25.5456 23.0474 25.3604 23.208C25.3487 23.217 25.3387 23.2228 25.333 23.2275C25.2887 23.2641 25.2506 23.3025 25.2256 23.3281C25.1695 23.3857 25.0896 23.4734 24.9727 23.6074C24.7379 23.8766 24.318 24.3723 23.5635 25.2861C23.4914 25.264 23.4199 25.2397 23.3506 25.21L23.3447 25.207L22.8184 24.9814H22.8193C21.6799 24.4851 20.625 23.8138 19.6934 22.9912L19.6895 22.9883L19.332 22.6553C19.2127 22.5393 19.0891 22.4165 18.9492 22.2812L18.9463 22.2783L18.6572 21.9922C17.994 21.3144 17.4095 20.5632 16.915 19.7529L16.9111 19.7471L16.7861 19.5449L16.7812 19.5381L16.7764 19.5303L16.7256 19.4414C16.7744 19.3872 16.8353 19.3205 16.9004 19.2471C17.0594 19.0676 17.2645 18.8319 17.4023 18.6562L17.4014 18.6553C17.6541 18.3335 17.871 18.0198 18.0156 17.7861C18.3436 17.2581 18.5563 16.5423 18.2783 15.8652C17.8293 14.7684 17.3689 13.6759 16.8975 12.5879L16.4229 11.502C16.2675 11.1494 15.9923 10.9086 15.7441 10.7578C15.4903 10.6036 15.1963 10.5011 14.9043 10.4658H14.9053C14.7766 10.4499 14.6475 10.4373 14.5186 10.4277L14.5117 10.4268H14.5049Z" stroke="#3B8DF2" stroke-width="1.71875"/>
</svg>
