<svg width="28" height="28" viewBox="0 0 28 28" fill="none" xmlns="http://www.w3.org/2000/svg">
<path d="M10.0176 9.60868L13.0486 3.50468C13.1369 3.32803 13.2726 3.17945 13.4405 3.0756C13.6084 2.97176 13.802 2.91675 13.9995 2.91675C14.1969 2.91675 14.3905 2.97176 14.5584 3.0756C14.7264 3.17945 14.8621 3.32803 14.9503 3.50468L17.9813 9.60868L24.7573 10.5933C24.9527 10.6204 25.1366 10.702 25.288 10.8286C25.4393 10.9552 25.552 11.1218 25.6132 11.3094C25.6744 11.4969 25.6816 11.698 25.634 11.8895C25.5865 12.081 25.486 12.2552 25.3441 12.3923L20.4418 17.1407L21.5991 23.849C21.7473 24.71 20.8373 25.3657 20.0591 24.9597L13.9995 21.791L7.93863 24.9597C7.16163 25.3668 6.25163 24.71 6.3998 23.8478L7.55713 17.1395L2.6548 12.3912C2.51361 12.254 2.41376 12.0799 2.36659 11.8887C2.31942 11.6976 2.32681 11.497 2.38794 11.3098C2.44907 11.1227 2.56148 10.9564 2.71239 10.83C2.8633 10.7035 3.04666 10.622 3.24163 10.5945L10.0176 9.60868Z" fill="#FFAE00" stroke="#FFAE00" stroke-width="1.5" stroke-linecap="round" stroke-linejoin="round"/>
</svg>
