<svg viewBox="0 0 16 16" fill="none" xmlns="http://www.w3.org/2000/svg" id="Telegram-Alt--Streamline-Unicons-Thinline" height="16" width="16">
  <desc>
    Telegram Alt Streamline Icon: https://streamlinehq.com
  </desc>
  <path d="M14.630199999999999 1.8430933333333333c-0.29286666666666666 -0.24287999999999998 -0.6954666666666666 -0.30538 -1.0482 -0.16276L1.6373599999999997 6.502599999999999c-0.5254266666666666 0.21626666666666666 -0.7760400000000001 0.8175333333333332 -0.5597733333333332 1.3429333333333333 0.11185999999999999 0.2717333333333333 0.33451333333333333 0.4826 0.61186 0.5795999999999999l2.5768199999999997 0.8957999999999999 1.3964866666666667 4.6171999999999995c0.0028066666666666665 0.009399999999999999 0.011433333333333332 0.015133333333333334 0.015053333333333332 0.0242 0.014446666666666665 0.0368 0.03556666666666666 0.07073333333333333 0.06221333333333333 0.09993333333333333 0.009933333333333332 0.011733333333333333 0.020753333333333332 0.0228 0.03231333333333333 0.03293333333333333 0.03478666666666666 0.028933333333333332 0.07519333333333333 0.05026666666666666 0.11864666666666665 0.06273333333333334 0.006633333333333333 0.0019333333333333331 0.011073333333333333 0.007866666666666666 0.017826666666666664 0.009399999999999999l0.003906666666666666 -0.00019999999999999998 0.001953333333333333 0.0007999999999999999c0.022253333333333333 0.004999999999999999 0.04496 0.0074 0.06770666666666666 0.0072 0.029746666666666664 -0.0010666666666666667 0.05924666666666667 -0.006199999999999999 0.08756666666666665 -0.015266666666666666 0.005493333333333334 -0.0015333333333333332 0.011026666666666666 -0.0010666666666666667 0.016393333333333333 -0.0028666666666666667 0.04838666666666667 -0.017066666666666667 0.09208666666666666 -0.04513333333333333 0.12768666666666667 -0.08199999999999999 0.0041533333333333335 -0.004133333333333333 0.010459999999999999 -0.004866666666666667 0.014446666666666665 -0.009266666666666666l2.009133333333333 -2.2168 2.9309999999999996 2.2695333333333334c0.17806666666666665 0.13926666666666665 0.39766666666666667 0.21493333333333334 0.6236666666666666 0.21486666666666665 0.48893333333333333 -0.00006666666666666667 0.911 -0.3426 1.0117333333333334 -0.821l2.175133333333333 -10.678353333333334c0.0754 -0.36938666666666664 -0.0588 -0.7502466666666666 -0.3489333333333333 -0.9908866666666666ZM6.39192 10.1966l-0.47147999999999995 2.2912 -0.9832333333333333 -3.2518666666666665 4.876593333333333 -2.5393333333333334 -3.331386666666667 3.3313999999999995c-0.04606 0.04606666666666666 -0.07751333333333332 0.10473333333333332 -0.09049333333333333 0.1686Zm5.759146666666666 3.1816666666666666c-0.025599999999999998 0.12273333333333333 -0.11313333333333332 0.22333333333333333 -0.23113333333333333 0.26559999999999995 -0.11533333333333332 0.044333333333333336 -0.24553333333333333 0.0246 -0.3424666666666667 -0.052066666666666664l-3.1757999999999997 -2.4589999999999996c-0.13746666666666665 -0.10646666666666667 -0.3337333333333333 -0.08913333333333334 -0.4505333333333333 0.03973333333333333L6.554066666666666 12.714l0.4706666666666666 -2.285 4.792333333333334 -4.792933333333333c0.13019999999999998 -0.13000666666666666 0.13046666666666668 -0.3409466666666666 0.00039999999999999996 -0.4711533333333333 -0.1028 -0.10306666666666665 -0.2606 -0.12739999999999999 -0.3897333333333333 -0.060099999999999994L4.518833333333333 8.7026l-2.6112866666666665 -0.9076666666666666c-0.14234 -0.04686666666666667 -0.23913999999999996 -0.179 -0.24088666666666664 -0.3288 -0.006879999999999999 -0.15086666666666665 0.08243333333333333 -0.28959999999999997 0.22265333333333331 -0.3456666666666666L13.832 2.298826666666667c0.1248 -0.052939999999999994 0.2687333333333333 -0.030766666666666664 0.37179999999999996 0.057286666666666666 0.10253333333333332 0.08276666666666666 0.14959999999999998 0.21627333333333332 0.12173333333333333 0.3450533333333333L12.151066666666667 13.378266666666665Z" fill="#000000" stroke-width="0.6667"></path>
</svg>