<svg width="44" height="44" viewBox="0 0 44 44" fill="none" xmlns="http://www.w3.org/2000/svg">
<path d="M21.8643 0.859375C33.4647 0.859375 42.8691 10.2638 42.8691 21.8643C42.8691 33.4647 33.4647 42.8691 21.8643 42.8691C10.2638 42.8691 0.859375 33.4647 0.859375 21.8643C0.859436 10.2639 10.2639 0.859436 21.8643 0.859375ZM32.1572 10.5469C31.9753 10.514 31.7893 10.5192 31.6104 10.5605L31.4336 10.6143L6.9375 19.9482L6.92969 19.9512C6.70771 20.0381 6.5131 20.1815 6.36426 20.3662L6.30273 20.4482C6.1483 20.6725 6.06417 20.9377 6.06152 21.21V21.2188C6.06168 21.7818 6.41888 22.2904 6.93848 22.4873L6.94824 22.4912L12.8857 24.6572L13.2393 24.7861L13.5742 24.6133L21.9062 20.3115L16.9395 24.7666L16.1865 25.4414L16.9746 26.0762L26.1992 33.5039L26.2178 33.5186L26.2373 33.5332C26.6025 33.7949 27.0793 33.8579 27.4971 33.7061L27.5039 33.7031C27.713 33.6251 27.8993 33.4965 28.0469 33.3291C28.1942 33.162 28.2974 32.9609 28.3486 32.7441L28.3496 32.7451L33.2354 12.1963L33.2344 12.1953C33.277 12.016 33.2832 11.8308 33.252 11.6504L33.209 11.4717L33.1416 11.3008C33.0628 11.1346 32.9506 10.9856 32.8115 10.8633C32.6263 10.7004 32.4 10.5908 32.1572 10.5469Z" stroke="#3B8DF2" stroke-width="1.71875"/>
</svg>
