<svg width="48" height="31" viewBox="0 0 48 31" fill="none" xmlns="http://www.w3.org/2000/svg">
<mask id="path-1-outside-1_300_200" maskUnits="userSpaceOnUse" x="0" y="0" width="48" height="31" fill="black">
<rect fill="white" width="48" height="31"/>
<path fill-rule="evenodd" clip-rule="evenodd" d="M44.9642 3.85096C45.2906 2.80702 44.9642 2.04812 43.5205 2.04812H38.7199C37.509 2.04812 36.9498 2.71262 36.6235 3.42339C36.6235 3.42339 34.154 9.49454 30.7055 13.4306C29.5871 14.569 29.0747 14.9484 28.4688 14.9484C28.1425 14.9484 27.7226 14.569 27.7226 13.5259V3.80191C27.7226 2.56917 27.3504 2 26.3247 2H18.775C18.0289 2 17.5632 2.56917 17.5632 3.13834C17.5632 4.32388 19.2874 4.60893 19.4735 7.92863V15.1418C19.4735 16.7068 19.1985 16.9928 18.588 16.9928C16.9573 16.9928 12.9963 10.8744 10.6203 3.90279C10.1583 2.52197 9.68901 2 8.47718 2H3.63075C2.23283 2 2 2.66357 2 3.37526C2 4.65613 3.63075 11.1058 9.59551 19.6424C13.5564 25.473 19.1949 28.6066 24.2741 28.6066C27.3504 28.6066 27.7226 27.895 27.7226 26.7094V22.2986C27.7226 20.8761 28.0022 20.6392 28.9812 20.6392C29.6797 20.6392 30.9383 21.0177 33.7809 23.8164C37.0424 27.1361 37.6015 28.6538 39.4193 28.6538H44.219C45.6169 28.6538 46.2696 27.9422 45.8965 26.5669C45.4776 25.1916 43.8926 23.2 41.8421 20.8289C40.7237 19.5018 39.0462 18.0312 38.5338 17.3195C37.8353 16.3709 38.0214 15.9914 38.5338 15.1381C38.487 15.1381 44.3592 6.69589 44.9642 3.84726"/>
</mask>
<path d="M36.6235 3.42339L34.8059 2.58889L34.7875 2.62897L34.7709 2.66982L36.6235 3.42339ZM30.7055 13.4306L32.1321 14.8322L32.1722 14.7915L32.2098 14.7486L30.7055 13.4306ZM19.4735 7.92863H21.4735V7.87262L21.4704 7.8167L19.4735 7.92863ZM10.6203 3.90279L8.72366 4.53739L8.72727 4.54797L10.6203 3.90279ZM9.59551 19.6424L11.2499 18.5186L11.2425 18.5077L11.235 18.4969L9.59551 19.6424ZM33.7809 23.8164L35.2075 22.4147L35.1959 22.4028L35.184 22.3912L33.7809 23.8164ZM45.8965 26.5669L47.8267 26.0433L47.8186 26.0135L47.8097 25.9841L45.8965 26.5669ZM41.8421 20.8289L40.3127 22.1177L40.3209 22.1275L40.3293 22.1372L41.8421 20.8289ZM38.5338 17.3195L40.1569 16.1509L40.1506 16.1422L40.1443 16.1336L38.5338 17.3195ZM38.5338 15.1381L40.2484 16.1678L42.0677 13.1381H38.5338V15.1381ZM44.9642 3.85096L46.8731 4.44768C47.1037 3.71018 47.2967 2.49957 46.5515 1.42113C45.7786 0.302478 44.5065 0.0481247 43.5205 0.0481247V2.04812V4.04812C43.7199 4.04812 43.7522 4.07617 43.6862 4.05089C43.6002 4.01799 43.4147 3.91778 43.2607 3.695C43.111 3.47831 43.0832 3.27884 43.0804 3.19545C43.0781 3.12553 43.0918 3.13757 43.0553 3.25424L44.9642 3.85096ZM43.5205 2.04812V0.0481247H38.7199V2.04812V4.04812H43.5205V2.04812ZM38.7199 2.04812V0.0481247C37.7193 0.0481247 36.8375 0.333296 36.1217 0.883105C35.4384 1.40788 35.0452 2.06763 34.8059 2.58889L36.6235 3.42339L38.441 4.25789C38.5281 4.06838 38.5776 4.0405 38.5582 4.05533C38.5455 4.0651 38.5351 4.06848 38.5407 4.06668C38.549 4.06403 38.6017 4.04812 38.7199 4.04812V2.04812ZM36.6235 3.42339C34.7709 2.66982 34.7709 2.66961 34.771 2.66942C34.771 2.66939 34.7711 2.66922 34.7711 2.66915C34.7712 2.66902 34.7712 2.66898 34.7712 2.66903C34.7711 2.66913 34.771 2.6696 34.7706 2.67042C34.7699 2.67207 34.7687 2.67516 34.7668 2.67966C34.7631 2.68865 34.7571 2.70327 34.7487 2.72327C34.7321 2.76327 34.7063 2.82475 34.6716 2.90572C34.6024 3.06773 34.4981 3.30742 34.3616 3.60894C34.0883 4.21279 33.6881 5.06034 33.1844 6.02595C32.1644 7.98128 30.7712 10.3206 29.2011 12.1126L30.7055 13.4306L32.2098 14.7486C34.0882 12.6045 35.654 9.94026 36.7309 7.876C37.2756 6.83182 37.7083 5.91557 38.0058 5.25807C38.1548 4.92893 38.2703 4.66356 38.3496 4.47817C38.3892 4.38545 38.4198 4.31265 38.441 4.2618C38.4516 4.23637 38.4599 4.21641 38.4657 4.20219C38.4687 4.19508 38.471 4.1894 38.4727 4.18518C38.4736 4.18308 38.4743 4.18133 38.4748 4.17996C38.4751 4.17927 38.4754 4.17868 38.4756 4.17818C38.4757 4.17793 38.4758 4.17762 38.4758 4.1775C38.476 4.17721 38.4761 4.17695 36.6235 3.42339ZM30.7055 13.4306L29.2788 12.029C28.7186 12.5992 28.4289 12.853 28.259 12.9703C28.1909 13.0173 28.1925 13.0061 28.2492 12.986C28.3176 12.9618 28.3981 12.9484 28.4688 12.9484V14.9484V16.9484C29.2777 16.9484 29.9466 16.6657 30.531 16.2624C31.0483 15.9054 31.574 15.4004 32.1321 14.8322L30.7055 13.4306ZM28.4688 14.9484V12.9484C29.1243 12.9484 29.5129 13.3262 29.6524 13.5418C29.7826 13.7429 29.7226 13.8058 29.7226 13.5259H27.7226H25.7226C25.7226 14.2891 25.8726 15.0632 26.2942 15.7148C26.7252 16.3809 27.4869 16.9484 28.4688 16.9484V14.9484ZM27.7226 13.5259H29.7226V3.80191H27.7226H25.7226V13.5259H27.7226ZM27.7226 3.80191H29.7226C29.7226 3.07607 29.6324 2.07464 29.011 1.24224C28.2815 0.265146 27.2126 0 26.3247 0V2V4C26.4057 4 26.3499 4.01252 26.2245 3.96168C26.0758 3.90142 25.9202 3.7886 25.8056 3.63512C25.7047 3.49984 25.6896 3.40545 25.697 3.43857C25.7052 3.47486 25.7226 3.58422 25.7226 3.80191H27.7226ZM26.3247 2V0H18.775V2V4H26.3247V2ZM18.775 2V0C16.891 0 15.5632 1.49818 15.5632 3.13834H17.5632H19.5632C19.5632 3.39183 19.464 3.60674 19.316 3.75735C19.1489 3.92746 18.9374 4 18.775 4V2ZM17.5632 3.13834H15.5632C15.5632 3.98365 15.8925 4.61377 16.1746 5.0343C16.3047 5.22821 16.4466 5.40871 16.545 5.53421C16.656 5.67564 16.7393 5.78146 16.8225 5.89763C17.077 6.25305 17.4068 6.79435 17.4767 8.04056L19.4735 7.92863L21.4704 7.8167C21.3542 5.74321 20.7288 4.48214 20.0746 3.56872C19.9307 3.36768 19.7897 3.18964 19.6921 3.06518C19.5819 2.9248 19.5309 2.85738 19.4964 2.80598C19.4494 2.7359 19.5632 2.88581 19.5632 3.13834H17.5632ZM19.4735 7.92863H17.4735V15.1418H19.4735H21.4735V7.92863H19.4735ZM19.4735 15.1418H17.4735C17.4735 15.4853 17.4577 15.6922 17.4412 15.808C17.4228 15.9366 17.4161 15.8582 17.5022 15.6997C17.5507 15.6102 17.629 15.495 17.7485 15.3798C17.8703 15.2624 18.0083 15.1709 18.1493 15.1061C18.2855 15.0436 18.4017 15.0163 18.4759 15.0041C18.5129 14.998 18.5416 14.9953 18.5596 14.994C18.5775 14.9928 18.5877 14.9928 18.588 14.9928V16.9928V18.9928C18.8707 18.9928 19.3319 18.9647 19.8186 18.7412C20.3608 18.4922 20.7592 18.0838 21.0173 17.6086C21.4318 16.8453 21.4735 15.9033 21.4735 15.1418H19.4735ZM18.588 16.9928V14.9928C18.9673 14.9928 19.128 15.1488 18.991 15.0567C18.8926 14.9905 18.7106 14.8407 18.4505 14.5624C17.9347 14.0103 17.2903 13.1465 16.5827 12.007C15.175 9.74033 13.6546 6.60612 12.5134 3.25761L10.6203 3.90279L8.72727 4.54797C9.96207 8.17111 11.6101 11.5819 13.1846 14.1173C13.9681 15.3788 14.7682 16.4804 15.5279 17.2934C15.9056 17.6976 16.3192 18.0803 16.7588 18.3759C17.1599 18.6456 17.8011 18.9928 18.588 18.9928V16.9928ZM10.6203 3.90279L12.517 3.2682C12.2702 2.53068 11.9098 1.63533 11.1905 0.967683C10.3671 0.20346 9.38273 0 8.47718 0V2V4C8.64391 4 8.68319 4.01894 8.65199 4.00901C8.60198 3.9931 8.52894 3.95476 8.46939 3.89949C8.42248 3.85595 8.43582 3.84927 8.491 3.95415C8.54872 4.06388 8.62526 4.24319 8.72369 4.53738L10.6203 3.90279ZM8.47718 2V0H3.63075V2V4H8.47718V2ZM3.63075 2V0C2.66314 0 1.58732 0.226364 0.814922 1.0714C0.0668172 1.88986 0 2.86911 0 3.37526H2H4C4 3.29488 4.00804 3.31102 3.98952 3.37982C3.96719 3.46281 3.90728 3.61705 3.76739 3.77009C3.62484 3.92605 3.48105 3.99123 3.42277 4.01079C3.38022 4.02508 3.42973 4 3.63075 4V2ZM2 3.37526H0C0 3.97135 0.161906 4.82592 0.416185 5.77467C0.685915 6.78107 1.10368 8.05266 1.70797 9.54052C2.91741 12.5184 4.88786 16.3968 7.95606 20.788L9.59551 19.6424L11.235 18.4969C8.3384 14.3514 6.5111 10.7367 5.41397 8.03536C4.86498 6.68362 4.50226 5.56908 4.27982 4.73915C4.16847 4.32367 4.09506 3.98988 4.0507 3.741C4.0027 3.47161 4 3.36353 4 3.37526H2ZM9.59551 19.6424L7.94115 20.7663C12.1856 27.0141 18.3885 30.6066 24.2741 30.6066V28.6066V26.6066C20.0012 26.6066 14.9273 23.9318 11.2499 18.5186L9.59551 19.6424ZM24.2741 28.6066V30.6066C25.8187 30.6066 27.2488 30.4583 28.2798 29.7543C29.6124 28.8443 29.7226 27.4697 29.7226 26.7094H27.7226H25.7226C25.7226 26.9309 25.7 26.926 25.7319 26.8363C25.7856 26.6851 25.9006 26.5353 26.0242 26.4509C26.1002 26.399 26.0645 26.4524 25.752 26.5094C25.4473 26.5649 24.9785 26.6066 24.2741 26.6066V28.6066ZM27.7226 26.7094H29.7226V22.2986H27.7226H25.7226V26.7094H27.7226ZM27.7226 22.2986H29.7226C29.7226 21.9888 29.7395 21.8498 29.7476 21.8064C29.7557 21.7632 29.7296 21.9592 29.538 22.1954C29.4386 22.318 29.3185 22.4213 29.1891 22.4997C29.0646 22.5751 28.9578 22.6117 28.8949 22.6287C28.7976 22.6551 28.7849 22.6392 28.9812 22.6392V20.6392V18.6392C28.5173 18.6392 27.2734 18.6376 26.4315 19.6755C26.0477 20.1488 25.8905 20.6707 25.8156 21.072C25.7407 21.473 25.7226 21.8971 25.7226 22.2986H27.7226ZM28.9812 20.6392V22.6392C28.8177 22.6392 29.5684 22.4756 32.3777 25.2415L33.7809 23.8164L35.184 22.3912C32.3082 19.5598 30.5417 18.6392 28.9812 18.6392V20.6392ZM33.7809 23.8164L32.3542 25.218C33.1353 26.013 33.7561 26.7016 34.285 27.2987C34.7945 27.874 35.2781 28.4338 35.7096 28.8763C36.1478 29.3257 36.6562 29.7873 37.2786 30.124C37.9474 30.4857 38.6531 30.6538 39.4193 30.6538V28.6538V26.6538C39.2766 26.6538 39.2308 26.6323 39.1815 26.6056C39.086 26.554 38.9099 26.4287 38.5734 26.0837C38.2302 25.7317 37.8489 25.2897 37.2794 24.6467C36.7293 24.0256 36.0573 23.2796 35.2075 22.4147L33.7809 23.8164ZM39.4193 28.6538V30.6538H44.219V28.6538V26.6538H39.4193V28.6538ZM44.219 28.6538V30.6538C45.1812 30.6538 46.4174 30.4164 47.2588 29.4058C48.1373 28.3507 48.1 27.0505 47.8267 26.0433L45.8965 26.5669L43.9662 27.0905C44.0123 27.2601 43.9951 27.2983 44.002 27.2398C44.0111 27.1626 44.0535 27.0042 44.1849 26.8464C44.3113 26.6946 44.4377 26.6422 44.4624 26.6335C44.4769 26.6284 44.4088 26.6538 44.219 26.6538V28.6538ZM45.8965 26.5669L47.8097 25.9841C47.4971 24.9579 46.8247 23.8903 46.0968 22.8926C45.3407 21.8561 44.3866 20.7137 43.3548 19.5206L41.8421 20.8289L40.3293 22.1372C41.3481 23.3152 42.2118 24.3542 42.8654 25.2501C43.5474 26.1848 43.8769 26.8006 43.9833 27.1497L45.8965 26.5669ZM41.8421 20.8289L43.3715 19.5401C42.7469 18.799 41.9843 18.0379 41.3741 17.4284C40.682 16.737 40.2922 16.3389 40.1569 16.1509L38.5338 17.3195L36.9107 18.4881C37.2878 19.0118 37.993 19.7048 38.5473 20.2584C39.1835 20.8939 39.8188 21.5316 40.3127 22.1177L41.8421 20.8289ZM38.5338 17.3195L40.1443 16.1336C40.0874 16.0563 40.0533 16.0034 40.0341 15.971C40.015 15.9386 40.0159 15.9353 40.0245 15.957C40.0339 15.9803 40.0512 16.0303 40.0635 16.1024C40.0761 16.1766 40.0803 16.2569 40.0744 16.338C40.0627 16.499 40.0166 16.5842 40.0355 16.5432C40.0449 16.5228 40.0642 16.4843 40.1016 16.4178C40.1393 16.3506 40.1856 16.2723 40.2484 16.1678L38.5338 15.1381L36.8192 14.1085C36.6247 14.4323 36.1493 15.1632 36.085 16.0481C36.0096 17.0855 36.4799 17.9032 36.9233 18.5054L38.5338 17.3195ZM38.5338 15.1381V13.1381C38.9684 13.1859 39.811 13.5992 40.1574 13.9705C40.3495 14.2999 40.5177 14.8868 40.5334 15.1171C40.5372 15.4819 40.4352 15.7574 40.4251 15.7868C40.3741 15.9354 40.3155 16.0449 40.3101 16.0551C40.2921 16.0898 40.2773 16.1156 40.2711 16.1262C40.2638 16.1389 40.2582 16.1482 40.2557 16.1523C40.249 16.1634 40.2504 16.1605 40.2692 16.1316C40.3028 16.0799 40.3577 15.9968 40.437 15.8776C40.5912 15.6459 40.8232 15.2988 41.1014 14.8785C41.6598 14.0351 42.4194 12.874 43.2018 11.619C43.9816 10.3682 44.7976 9.00265 45.4629 7.75337C46.0938 6.56888 46.7041 5.28211 46.9206 4.26276L44.9642 3.84726L43.0079 3.43176C42.9219 3.83673 42.5713 4.67347 41.9324 5.87308C41.328 7.0079 40.5654 8.28699 39.8074 9.50282C39.052 10.7145 38.3145 11.842 37.7661 12.6705C37.4909 13.0862 37.2671 13.4209 37.1067 13.662C37.0287 13.7792 36.9617 13.8803 36.9141 13.9537C36.8923 13.9872 36.8634 14.0322 36.8372 14.0753C36.8285 14.0895 36.7961 14.1427 36.7617 14.2089C36.7542 14.2232 36.6942 14.3357 36.6424 14.4864C36.632 14.5168 36.5299 14.793 36.5336 15.1584C36.5493 15.389 36.7176 15.9761 36.9097 16.3056C37.2562 16.677 38.099 17.0903 38.5338 17.1381V15.1381Z" fill="white" mask="url(#path-1-outside-1_300_200)"/>
</svg>
