<svg width="46" height="29" viewBox="0 0 46 29" fill="none" xmlns="http://www.w3.org/2000/svg">
<mask id="path-1-outside-1_339_1269" maskUnits="userSpaceOnUse" x="0" y="0" width="46" height="29" fill="black">
<rect fill="white" width="46" height="29"/>
<path fill-rule="evenodd" clip-rule="evenodd" d="M43.9642 2.85096C44.2906 1.80702 43.9642 1.04812 42.5205 1.04812H37.7199C36.509 1.04812 35.9498 1.71262 35.6235 2.42339C35.6235 2.42339 33.154 8.49454 29.7055 12.4306C28.5871 13.569 28.0747 13.9484 27.4688 13.9484C27.1425 13.9484 26.7226 13.569 26.7226 12.5259V2.80191C26.7226 1.56917 26.3504 1 25.3247 1H17.775C17.0289 1 16.5632 1.56917 16.5632 2.13834C16.5632 3.32388 18.2874 3.60893 18.4735 6.92863V14.1418C18.4735 15.7068 18.1985 15.9928 17.588 15.9928C15.9573 15.9928 11.9963 9.87444 9.62034 2.90279C9.15834 1.52197 8.68901 1 7.47718 1H2.63075C1.23283 1 1 1.66357 1 2.37526C1 3.65613 2.63075 10.1058 8.59551 18.6424C12.5564 24.473 18.1949 27.6066 23.2741 27.6066C26.3504 27.6066 26.7226 26.895 26.7226 25.7094V21.2986C26.7226 19.8761 27.0022 19.6392 27.9812 19.6392C28.6797 19.6392 29.9383 20.0177 32.7809 22.8164C36.0424 26.1361 36.6015 27.6538 38.4193 27.6538H43.219C44.6169 27.6538 45.2696 26.9422 44.8965 25.5669C44.4776 24.1916 42.8926 22.2 40.8421 19.8289C39.7237 18.5018 38.0462 17.0312 37.5338 16.3195C36.8353 15.3709 37.0214 14.9914 37.5338 14.1381C37.487 14.1381 43.3592 5.69589 43.9642 2.84726"/>
</mask>
<path d="M35.6235 2.42339L34.7147 2.00614L34.7055 2.02618L34.6972 2.04661L35.6235 2.42339ZM29.7055 12.4306L30.4188 13.1314L30.4388 13.1111L30.4576 13.0896L29.7055 12.4306ZM18.4735 6.92863H19.4735V6.90062L19.472 6.87266L18.4735 6.92863ZM9.62035 2.90279L8.672 3.22009L8.67381 3.22538L9.62035 2.90279ZM8.59551 18.6424L9.42276 18.0805L9.41523 18.0697L8.59551 18.6424ZM32.7809 22.8164L33.4942 22.1155L33.4884 22.1096L33.4825 22.1038L32.7809 22.8164ZM44.8965 25.5669L45.8616 25.3051L45.8576 25.2902L45.8531 25.2755L44.8965 25.5669ZM40.8421 19.8289L40.0773 20.4733L40.0857 20.483L40.8421 19.8289ZM37.5338 16.3195L38.3454 15.7351L38.339 15.7265L37.5338 16.3195ZM37.5338 14.1381L38.3911 14.6529L39.3008 13.1381H37.5338V14.1381ZM43.9642 2.85096L44.9187 3.14932C45.1155 2.51958 45.2121 1.68892 44.7288 0.989598C44.2317 0.270163 43.3744 0.0481247 42.5205 0.0481247V1.04812V2.04812C43.1103 2.04812 43.138 2.20553 43.0834 2.12653C43.0639 2.09824 43.0777 2.09487 43.0799 2.16215C43.0824 2.23617 43.0688 2.36377 43.0098 2.5526L43.9642 2.85096ZM42.5205 1.04812V0.0481247H37.7199V1.04812V2.04812H42.5205V1.04812ZM37.7199 1.04812V0.0481247C36.9169 0.0481247 36.2547 0.273772 35.7308 0.676162C35.2232 1.06603 34.9159 1.56782 34.7147 2.00614L35.6235 2.42339L36.5323 2.84064C36.6573 2.56819 36.7928 2.38234 36.9491 2.26228C37.0891 2.15472 37.312 2.04812 37.7199 2.04812V1.04812ZM35.6235 2.42339C34.6972 2.04661 34.6972 2.04651 34.6972 2.04644C34.6972 2.04645 34.6972 2.0464 34.6972 2.04641C34.6972 2.04644 34.6972 2.04656 34.6971 2.04677C34.6969 2.04718 34.6966 2.04797 34.6961 2.04911C34.6952 2.05141 34.6937 2.05514 34.6915 2.06029C34.6873 2.07059 34.6807 2.08654 34.6718 2.1079C34.654 2.15061 34.627 2.21492 34.5911 2.29883C34.5194 2.46668 34.4122 2.7128 34.2727 3.02123C33.9933 3.63848 33.585 4.50321 33.071 5.48846C32.0368 7.47103 30.6004 9.8916 28.9533 11.7716L29.7055 12.4306L30.4576 13.0896C32.259 11.0336 33.7816 8.45052 34.8443 6.41349C35.3787 5.38895 35.8033 4.48988 36.0948 3.84579C36.2406 3.52355 36.3533 3.2646 36.4301 3.08506C36.4685 2.99528 36.4979 2.92531 36.518 2.87716C36.528 2.85309 36.5357 2.83447 36.541 2.82156C36.5437 2.8151 36.5457 2.81007 36.5472 2.80649C36.5479 2.80471 36.5485 2.80328 36.5489 2.80223C36.5491 2.8017 36.5493 2.80127 36.5495 2.80092C36.5495 2.80075 36.5496 2.80056 36.5496 2.80048C36.5497 2.80031 36.5498 2.80017 35.6235 2.42339ZM29.7055 12.4306L28.9921 11.7298C28.4324 12.2995 28.0838 12.6161 27.827 12.7934C27.6037 12.9474 27.5187 12.9484 27.4688 12.9484V13.9484V14.9484C28.0247 14.9484 28.499 14.7596 28.963 14.4394C29.3934 14.1423 29.8602 13.7001 30.4188 13.1314L29.7055 12.4306ZM27.4688 13.9484V12.9484C27.715 12.9484 27.816 13.0899 27.8129 13.085C27.8051 13.073 27.7226 12.9266 27.7226 12.5259H26.7226H25.7226C25.7226 13.1683 25.8501 13.7331 26.1338 14.1716C26.4221 14.6172 26.8963 14.9484 27.4688 14.9484V13.9484ZM26.7226 12.5259H27.7226V2.80191H26.7226H25.7226V12.5259H26.7226ZM26.7226 2.80191H27.7226C27.7226 2.1308 27.631 1.40485 27.2096 0.840459C26.7343 0.203719 26.0251 0 25.3247 0V1V2C25.4934 2 25.5733 2.02405 25.6002 2.03494C25.612 2.03974 25.6135 2.04191 25.61 2.03923C25.6063 2.0364 25.6051 2.03433 25.607 2.0369C25.6118 2.04335 25.6436 2.08952 25.6727 2.21943C25.7023 2.35094 25.7226 2.53897 25.7226 2.80191H26.7226ZM25.3247 1V0H17.775V1V2H25.3247V1ZM17.775 1V0C16.4599 0 15.5632 1.03368 15.5632 2.13834H16.5632H17.5632C17.5632 2.12279 17.5718 2.08795 17.6026 2.05654C17.6162 2.04276 17.6338 2.03001 17.6573 2.02015C17.6801 2.0106 17.7174 2 17.775 2V1ZM16.5632 2.13834H15.5632C15.5632 2.70919 15.7817 3.1443 16.005 3.47722C16.1112 3.6355 16.2304 3.78773 16.3318 3.91695C16.4394 4.05414 16.5372 4.17802 16.6355 4.31541C16.99 4.81032 17.3936 5.53157 17.4751 6.9846L18.4735 6.92863L19.472 6.87266C19.3673 5.00599 18.8158 3.92487 18.2616 3.15095C18.1328 2.97113 18.0063 2.81114 17.9053 2.68244C17.7981 2.54578 17.7243 2.45009 17.666 2.36306C17.5602 2.20536 17.5632 2.16027 17.5632 2.13834H16.5632ZM18.4735 6.92863H17.4735V14.1418H18.4735H19.4735V6.92863H18.4735ZM18.4735 14.1418H17.4735C17.4735 14.5092 17.457 14.7683 17.4311 14.9496C17.4042 15.1374 17.3742 15.1894 17.3809 15.1769C17.4012 15.1397 17.463 15.0625 17.5666 15.0149C17.6425 14.98 17.6756 14.9928 17.588 14.9928V15.9928V16.9928C17.8057 16.9928 18.1021 16.9698 18.4013 16.8324C18.7282 16.6823 18.9732 16.4358 19.1385 16.1314C19.4183 15.6162 19.4735 14.9138 19.4735 14.1418H18.4735ZM17.588 15.9928V14.9928C17.6757 14.9928 17.6359 15.023 17.433 14.8865C17.2492 14.7629 17.0094 14.5549 16.7199 14.2451C16.1431 13.6278 15.4598 12.7046 14.7332 11.5346C13.2838 9.20072 11.7315 5.99736 10.5669 2.5802L9.62035 2.90279L8.67381 3.22538C9.88521 6.77986 11.5013 10.1215 13.0341 12.5897C13.7986 13.8208 14.5598 14.8628 15.2586 15.6106C15.6069 15.9833 15.9626 16.3078 16.3169 16.5461C16.6519 16.7714 17.0926 16.9928 17.588 16.9928V15.9928ZM9.62035 2.90279L10.5687 2.58549C10.3298 1.87153 10.0332 1.186 9.51023 0.700635C8.93525 0.166976 8.23291 0 7.47718 0V1V2C7.93327 2 8.07152 2.09401 8.14967 2.16654C8.27984 2.28736 8.4489 2.55323 8.67202 3.22008L9.62035 2.90279ZM7.47718 1V0H2.63075V1V2H7.47718V1ZM2.63075 1V0C1.79747 0 1.05571 0.196128 0.553039 0.746074C0.0625128 1.28273 0 1.94426 0 2.37526H1H2C2 2.09457 2.0539 2.06847 2.02927 2.09542C1.9925 2.13566 2.06612 2 2.63075 2V1ZM1 2.37526H0C0 2.83342 0.131914 3.58234 0.382095 4.51579C0.640001 5.47807 1.04401 6.7104 1.63447 8.16423C2.81583 11.073 4.7505 14.8855 7.77579 19.2152L8.59551 18.6424L9.41523 18.0697C6.47577 13.8628 4.61268 10.1821 3.48747 7.41165C2.92465 6.02588 2.54817 4.87208 2.31391 3.99803C2.07193 3.09516 2 2.55755 2 2.37526H1ZM8.59551 18.6424L7.76833 19.2044C11.871 25.2436 17.7917 28.6066 23.2741 28.6066V27.6066V26.6066C18.598 26.6066 13.2419 23.7024 9.42269 18.0805L8.59551 18.6424ZM23.2741 27.6066V28.6066C24.8155 28.6066 25.9616 28.4435 26.7159 27.9284C27.621 27.3104 27.7226 26.3859 27.7226 25.7094H26.7226H25.7226C25.7226 26.2184 25.6382 26.2426 25.5881 26.2768C25.3872 26.4139 24.8091 26.6066 23.2741 26.6066V27.6066ZM26.7226 25.7094H27.7226V21.2986H26.7226H25.7226V25.7094H26.7226ZM26.7226 21.2986H27.7226C27.7226 20.9659 27.7398 20.7556 27.7646 20.6228C27.7894 20.4901 27.8091 20.5066 27.7614 20.5654C27.6982 20.6433 27.626 20.6655 27.6332 20.6636C27.6665 20.6546 27.7607 20.6392 27.9812 20.6392V19.6392V18.6392C27.5045 18.6392 26.7252 18.668 26.2082 19.3055C25.9682 19.6014 25.8568 19.9438 25.7986 20.2556C25.7404 20.5672 25.7226 20.92 25.7226 21.2986H26.7226ZM27.9812 19.6392V20.6392C28.2487 20.6392 29.2533 20.7467 32.0793 23.529L32.7809 22.8164L33.4825 22.1038C30.6233 19.2888 29.1107 18.6392 27.9812 18.6392V19.6392ZM32.7809 22.8164L32.0675 23.5172C32.8658 24.3296 33.4994 25.0326 34.0336 25.6357C34.5581 26.2279 35.0161 26.7583 35.4256 27.1782C35.8383 27.6014 36.2636 27.979 36.7544 28.2444C37.2682 28.5223 37.809 28.6538 38.4193 28.6538V27.6538V26.6538C38.1207 26.6538 37.9099 26.5956 37.7058 26.4852C37.4785 26.3623 37.2194 26.153 36.8574 25.7818C36.4922 25.4073 36.0853 24.9358 35.5308 24.3097C34.986 23.6946 34.3268 22.9629 33.4942 22.1155L32.7809 22.8164ZM38.4193 27.6538V28.6538H43.219V27.6538V26.6538H38.4193V27.6538ZM43.219 27.6538V28.6538C44.0496 28.6538 44.924 28.4462 45.4903 27.7659C46.0752 27.0635 46.0915 26.1525 45.8616 25.3051L44.8965 25.5669L43.9314 25.8287C44.001 26.0854 44.007 26.2557 43.9952 26.3565C43.9844 26.448 43.9605 26.4777 43.9534 26.4862C43.9372 26.5057 43.7863 26.6538 43.219 26.6538V27.6538ZM44.8965 25.5669L45.8531 25.2755C45.5921 24.4186 45.0054 23.4639 44.289 22.4819C43.5584 21.4806 42.627 20.3641 41.5984 19.1748L40.8421 19.8289L40.0857 20.483C41.1077 21.6648 41.994 22.7296 42.6733 23.6607C43.3667 24.6112 43.782 25.3399 43.9399 25.8583L44.8965 25.5669ZM40.8421 19.8289L41.6068 19.1845C41.0149 18.4822 40.2841 17.7519 39.6674 17.1359C39.0097 16.479 38.5411 16.0071 38.3453 15.7352L37.5338 16.3195L36.7223 16.9038C37.0389 17.3436 37.6652 17.9628 38.254 18.5509C38.8837 19.1799 39.5509 19.8485 40.0774 20.4733L40.8421 19.8289ZM37.5338 16.3195L38.339 15.7265C38.1916 15.5263 38.1252 15.4014 38.0958 15.3277C38.0823 15.2938 38.0786 15.2756 38.0776 15.2699C38.0773 15.2683 38.0772 15.2672 38.0771 15.2666C38.0771 15.2661 38.0771 15.2658 38.0771 15.2658C38.077 15.2657 38.0771 15.2658 38.0771 15.2659C38.0771 15.2659 38.077 15.2659 38.0771 15.2655C38.0771 15.2652 38.0777 15.2563 38.084 15.2348C38.0907 15.212 38.1033 15.1768 38.1275 15.1244C38.18 15.0106 38.26 14.8713 38.3911 14.6529L37.5338 14.1381L36.6765 13.6233C36.4512 13.9986 36.1261 14.5181 36.0823 15.1206C36.033 15.7993 36.3322 16.3742 36.7285 16.9124L37.5338 16.3195ZM37.5338 14.1381V13.1381C37.751 13.162 38.1723 13.3686 38.3455 13.5543C38.4415 13.7189 38.5256 14.0123 38.5335 14.1274C38.5354 14.3097 38.4844 14.4473 38.4795 14.4617C38.4541 14.5355 38.4251 14.5894 38.423 14.5936C38.4145 14.6099 38.4078 14.6215 38.4056 14.6253C38.4028 14.6301 38.4011 14.633 38.401 14.6331C38.4009 14.6334 38.4014 14.6325 38.4029 14.6301C38.4043 14.6278 38.4063 14.6246 38.409 14.6204C38.4143 14.612 38.4214 14.601 38.4304 14.5871C38.4675 14.53 38.5255 14.4424 38.6045 14.3237C38.7602 14.0897 38.9901 13.7457 39.2676 13.3265C39.8235 12.4868 40.5775 11.3341 41.3532 10.09C42.1276 8.84792 42.9302 7.50396 43.5803 6.2833C44.2131 5.09503 44.7585 3.92076 44.9424 3.05501L43.9642 2.84726L42.986 2.63951C42.8674 3.19807 42.4519 4.14732 41.815 5.34315C41.1954 6.50659 40.4195 7.8073 39.656 9.03188C38.8939 10.2544 38.1508 11.3903 37.5999 12.2225C37.324 12.6393 37.0981 12.9772 36.9393 13.2159C36.861 13.3336 36.797 13.4302 36.7529 13.4981C36.7318 13.5306 36.7098 13.565 36.6918 13.5946C36.685 13.6057 36.6671 13.6353 36.6488 13.6704C36.6445 13.6786 36.6142 13.7356 36.5881 13.8115C36.5828 13.8269 36.5317 13.9653 36.5336 14.1481C36.5414 14.2634 36.6256 14.557 36.7217 14.7218C36.8949 14.9075 37.3164 15.1142 37.5338 15.1381V14.1381Z" fill="white" mask="url(#path-1-outside-1_339_1269)"/>
</svg>
